<?xml version="1.0" standalone="no"?>
<!DOCTYPE svg PUBLIC "-//W3C//DTD SVG 20010904//EN"
 "http://www.w3.org/TR/2001/REC-SVG-20010904/DTD/svg10.dtd">
<svg version="1.0" xmlns="http://www.w3.org/2000/svg"
 width="596.000000pt" height="596.000000pt" viewBox="0 0 596.000000 596.000000"
 preserveAspectRatio="xMidYMid meet">

<g transform="translate(0.000000,596.000000) scale(0.100000,-0.100000)"
fill="#000000" stroke="none">
<path d="M2780 5954 c-19 -2 -80 -9 -135 -15 -740 -77 -1471 -478 -1954 -1069
-379 -464 -604 -1012 -662 -1615 -17 -174 -6 -543 20 -717 198 -1292 1207
-2301 2499 -2499 174 -26 543 -37 717 -20 335 32 635 110 929 240 953 422
1616 1307 1751 2335 21 161 21 621 0 782 -141 1074 -863 1990 -1880 2387 -199
77 -445 140 -676 172 -108 15 -532 28 -609 19z m731 -1243 l148 -304 -27 -37
c-15 -20 -358 -476 -762 -1013 -629 -836 -773 -1037 -757 -1053 2 -3 1519 70
1662 80 l80 5 -65 -23 c-36 -12 -618 -278 -1294 -590 -676 -311 -1230 -565
-1232 -564 -2 2 403 995 899 2206 l901 2202 149 -302 c82 -167 216 -440 298
-607z m884 -1976 c351 -808 644 -1486 652 -1505 9 -25 -271 250 -1002 984
-558 561 -1015 1025 -1015 1031 0 14 279 403 434 605 56 74 143 188 192 252
49 64 92 114 95 110 4 -4 293 -668 644 -1477z"/>
<path d="M2511 3764 c0 -11 3 -14 6 -6 3 7 2 16 -1 19 -3 4 -6 -2 -5 -13z"/>
<path d="M2461 3594 c0 -11 3 -14 6 -6 3 7 2 16 -1 19 -3 4 -6 -2 -5 -13z"/>
<path d="M2431 3494 c0 -11 3 -14 6 -6 3 7 2 16 -1 19 -3 4 -6 -2 -5 -13z"/>
<path d="M2411 3424 c0 -11 3 -14 6 -6 3 7 2 16 -1 19 -3 4 -6 -2 -5 -13z"/>
<path d="M2381 3324 c0 -11 3 -14 6 -6 3 7 2 16 -1 19 -3 4 -6 -2 -5 -13z"/>
<path d="M2356 3244 c-4 -14 -5 -28 -3 -31 3 -2 8 8 11 23 4 14 5 28 3 31 -3
2 -8 -8 -11 -23z"/>
<path d="M2331 3154 c0 -11 3 -14 6 -6 3 7 2 16 -1 19 -3 4 -6 -2 -5 -13z"/>
</g>
</svg>
